<?xml version="1.0" encoding="iso-8859-1"?>
<!-- Uploaded to: SVG Repo, www.svgrepo.com, Generator: SVG Repo Mixer Tools -->
<svg height="800px" width="800px" version="1.1" id="Layer_1" xmlns="http://www.w3.org/2000/svg" xmlns:xlink="http://www.w3.org/1999/xlink" 
	 viewBox="0 0 512 512" xml:space="preserve">
<circle style="fill:#F1EDE8;" cx="256" cy="256" r="162.472"/>
<circle style="fill:#E3DCD2;" cx="256" cy="256" r="102.614"/>
<circle style="fill:#F1EDE8;" cx="256" cy="256" r="76.96"/>
<g>
	<path style="fill:#C971C2;" d="M25.119,307.307v76.96c0,9.445,7.656,17.102,17.102,17.102s17.102-7.658,17.102-17.102v-76.96
		H25.119z"/>
	<path style="fill:#C971C2;" d="M469.779,307.307v76.96c0,9.445,7.656,17.102,17.102,17.102s17.102-7.658,17.102-17.102v-76.96
		H469.779z"/>
</g>
<path style="fill:#F9C900;" d="M503.983,110.63v196.676h-34.205v-42.756h-17.102c-1.958-24.154-2.119-72.225,25.653-119.716
	C486.396,131.042,495.389,119.741,503.983,110.63z"/>
<path style="fill:#F36280;" d="M213.244,268.827c0-23.613,19.143-68.409,42.756-68.409s42.756,44.796,42.756,68.409
	S279.613,311.582,256,311.582S213.244,292.44,213.244,268.827z"/>
<path style="fill:#E05161;" d="M273.102,298.756c-23.613,0-42.756-19.143-42.756-42.756c0-15.361,8.102-39.683,20.265-54.809
	c-21.07,6.025-37.367,45.847-37.367,67.635c0,23.613,19.143,42.756,42.756,42.756c13.501,0,25.534-6.265,33.37-16.039
	C284.353,297.61,278.863,298.756,273.102,298.756z"/>
<path d="M370.295,140.251c-3.261,2.995-3.478,8.066-0.484,11.328c26.21,28.551,40.645,65.635,40.645,104.421
	c0,85.167-69.288,154.455-154.455,154.455S101.545,341.167,101.545,256S170.833,101.545,256,101.545
	c32.284,0,63.205,9.855,89.419,28.5c3.608,2.569,8.614,1.72,11.178-1.887c2.566-3.608,1.722-8.613-1.887-11.178
	C325.768,96.393,291.634,85.511,256,85.511c-94.007,0-170.489,76.481-170.489,170.489S161.993,426.489,256,426.489
	S426.489,350.007,426.489,256c0-42.812-15.934-83.748-44.867-115.265C378.628,137.476,373.556,137.259,370.295,140.251z"/>
<path d="M181.615,327.136c-2.953,3.299-2.672,8.367,0.626,11.321c20.298,18.168,46.494,28.174,73.759,28.174
	c61.002,0,110.63-49.629,110.63-110.63S317.002,145.37,256,145.37S145.37,194.998,145.37,256c0,19.45,5.121,38.582,14.808,55.326
	c2.217,3.831,7.121,5.141,10.954,2.924c3.832-2.218,5.142-7.122,2.924-10.954c-8.278-14.307-12.654-30.661-12.654-47.296
	c0-52.161,42.436-94.597,94.597-94.597s94.597,42.436,94.597,94.597S308.161,350.597,256,350.597
	c-23.315,0-45.711-8.554-63.066-24.088C189.633,323.554,184.566,323.837,181.615,327.136z"/>
<path d="M76.426,102.614c-4.428,0-8.017,3.588-8.017,8.017v59.858c0,5.01-4.076,9.086-9.086,9.086h-9.086V110.63
	c0-4.428-3.588-8.017-8.017-8.017s-8.017,3.588-8.017,8.017v68.944h-9.086c-5.01,0-9.086-4.076-9.086-9.086V110.63
	c0-4.428-3.588-8.017-8.017-8.017S0,106.202,0,110.63v59.858c0,13.851,11.268,25.119,25.119,25.119h9.086V299.29h-9.086
	c-4.428,0-8.017,3.588-8.017,8.017v76.96c0,13.851,11.268,25.119,25.119,25.119s25.119-11.268,25.119-25.119v-76.96
	c0-4.428-3.588-8.017-8.017-8.017h-9.086V195.608h9.086c13.851,0,25.119-11.268,25.119-25.119V110.63
	C84.443,106.202,80.854,102.614,76.426,102.614z M51.307,384.267c0,5.01-4.076,9.086-9.086,9.086s-9.086-4.076-9.086-9.086v-68.944
	h18.171V384.267z"/>
<path d="M506.943,103.18c-3.053-1.214-6.537-0.439-8.792,1.949c-10.282,10.901-19.279,22.898-26.743,35.658
	c-26.719,45.69-29.28,92.874-26.723,124.412c0.338,4.162,3.815,7.369,7.991,7.369h9.086v111.699
	c0,13.851,11.268,25.119,25.119,25.119S512,398.118,512,384.267V110.63C512,107.346,509.996,104.392,506.943,103.18z
	 M460.193,256.534c-1.372-28.927,2.434-68.967,25.057-107.653c3.26-5.574,6.84-10.991,10.716-16.219V299.29h-18.171v-34.739
	c0-4.428-3.588-8.017-8.017-8.017H460.193z M495.967,384.267c0,5.01-4.076,9.086-9.086,9.086s-9.086-4.076-9.086-9.086v-68.944
	h18.171V384.267z"/>
<path d="M306.772,268.827c0-26.844-20.938-76.426-50.772-76.426c-29.835,0-50.772,49.582-50.772,76.426
	c0,27.995,22.777,50.772,50.772,50.772S306.772,296.822,306.772,268.827z M228.021,239.911c8.55,4.603,18.063,7.003,27.979,7.003
	c9.916,0,19.429-2.402,27.979-7.003c1.515,3.702,2.821,7.473,3.872,11.166c-8.193,8.938-19.596,14.009-31.851,14.009
	s-23.658-5.071-31.85-14.01C225.201,247.383,226.506,243.613,228.021,239.911z M256,208.434c7.239,0,14.652,7.229,20.764,17.142
	c-6.328,3.485-13.393,5.305-20.764,5.305c-7.371,0-14.436-1.82-20.764-5.305C241.348,215.663,248.761,208.434,256,208.434z
	 M221.289,269.929c9.97,7.226,22.009,11.19,34.711,11.19s24.742-3.965,34.711-11.19c-0.586,18.647-15.925,33.637-34.711,33.637
	S221.875,288.576,221.289,269.929z"/>
</svg>